<svg width="221" height="70" viewBox="0 0 221 70" xmlns="http://www.w3.org/2000/svg" fill='black'> 
<path d="M13.9198 0.160034H55.9192V28.32H46.1594V28.88C62.2392 32.48 59.2792 56.24 43.1194 56.24H1.43998V28.32H12.7198V27.76C4.87993 26.24 0 21.36 0 14.08C0 6.88003 6.23992 0.160034 13.9198 0.160034ZM98.455 28.24V56.24H70.4553V28.24H58.8555V0.160034H109.335V28.24H98.455ZM125.324 0.160034H167.324V28.32H157.564V28.88C173.644 32.48 170.684 56.24 154.524 56.24H112.844V28.32H124.124V27.76C116.284 26.24 111.404 21.36 111.404 14.08C111.404 6.88003 117.644 0.160034 125.324 0.160034ZM209.86 28.24V56.24H181.861V28.24H170.261V0.160034H220.74V28.24H209.86Z"/>
<path d="M113.228 68.3811C112.751 68.3811 112.307 68.29 111.896 68.1077C111.49 67.9254 111.167 67.702 110.926 67.4374L111.287 65.9469C111.475 66.288 111.746 66.5849 112.099 66.8377C112.452 67.0905 112.843 67.2169 113.272 67.2169C113.636 67.2169 113.933 67.1082 114.162 66.8906C114.392 66.6672 114.506 66.3967 114.506 66.0792C114.506 65.8323 114.448 65.6294 114.33 65.4707C114.218 65.3119 114.086 65.1855 113.933 65.0914C113.78 64.9915 113.654 64.918 113.554 64.871L112.601 64.3947C112.39 64.283 112.166 64.1448 111.931 63.9802C111.696 63.8156 111.496 63.601 111.331 63.3364C111.167 63.0659 111.084 62.7249 111.084 62.3133C111.084 61.89 111.182 61.5166 111.376 61.1933C111.57 60.8699 111.843 60.6171 112.196 60.4348C112.549 60.2525 112.957 60.1614 113.422 60.1614C113.868 60.1614 114.265 60.2378 114.612 60.3907C114.959 60.5377 115.236 60.6935 115.441 60.8581L115.089 62.331C114.9 62.0546 114.65 61.8165 114.339 61.6166C114.033 61.4108 113.707 61.3079 113.36 61.3079C113.042 61.3079 112.793 61.399 112.61 61.5813C112.428 61.7577 112.337 61.9752 112.337 62.2339C112.337 62.4162 112.378 62.572 112.46 62.7014C112.549 62.8307 112.654 62.9395 112.778 63.0277C112.907 63.11 113.034 63.1835 113.157 63.2482L114.127 63.7333C114.262 63.7979 114.421 63.8891 114.603 64.0067C114.792 64.1184 114.974 64.2624 115.15 64.4388C115.327 64.6152 115.471 64.8298 115.582 65.0826C115.7 65.3355 115.759 65.6383 115.759 65.991C115.759 66.4496 115.65 66.8612 115.432 67.2258C115.221 67.5844 114.927 67.8666 114.551 68.0724C114.174 68.2782 113.733 68.3811 113.228 68.3811ZM117.519 68.24V63.9537H116.425V62.9483H117.545V61.1844H118.736V62.9483H119.917V63.9537H118.762V68.24H117.519ZM123.114 68.3811C122.597 68.3811 122.123 68.2576 121.694 68.0107C121.265 67.7579 120.924 67.4198 120.671 66.9964C120.418 66.5731 120.292 66.1057 120.292 65.5942C120.292 65.0767 120.418 64.6093 120.671 64.1919C120.924 63.7685 121.265 63.4334 121.694 63.1864C122.123 62.9336 122.597 62.8072 123.114 62.8072C123.638 62.8072 124.111 62.9336 124.534 63.1864C124.963 63.4334 125.304 63.7685 125.557 64.1919C125.81 64.6093 125.936 65.0767 125.936 65.5942C125.936 66.1057 125.81 66.5731 125.557 66.9964C125.304 67.4198 124.963 67.7579 124.534 68.0107C124.111 68.2576 123.638 68.3811 123.114 68.3811ZM123.114 67.2434C123.414 67.2434 123.687 67.1699 123.934 67.0229C124.181 66.87 124.375 66.6701 124.517 66.4232C124.663 66.1762 124.737 65.8999 124.737 65.5942C124.737 65.2884 124.663 65.0121 124.517 64.7651C124.375 64.5182 124.181 64.3212 123.934 64.1742C123.687 64.0214 123.414 63.9449 123.114 63.9449C122.814 63.9449 122.541 64.0214 122.294 64.1742C122.047 64.3212 121.85 64.5182 121.703 64.7651C121.562 65.0121 121.491 65.2884 121.491 65.5942C121.491 65.8999 121.562 66.1762 121.703 66.4232C121.85 66.6701 122.044 66.87 122.285 67.0229C122.532 67.1699 122.808 67.2434 123.114 67.2434ZM129.56 68.3811C129.037 68.3811 128.56 68.2576 128.131 68.0107C127.702 67.7579 127.361 67.4198 127.108 66.9964C126.855 66.5731 126.729 66.1057 126.729 65.5942C126.729 65.0767 126.855 64.6093 127.108 64.1919C127.361 63.7685 127.702 63.4334 128.131 63.1864C128.56 62.9336 129.037 62.8072 129.56 62.8072C129.93 62.8072 130.28 62.8719 130.609 63.0012C130.945 63.1247 131.238 63.3011 131.491 63.5304L131.147 64.9151C131 64.6505 130.792 64.4241 130.521 64.236C130.251 64.0419 129.939 63.9449 129.586 63.9449C129.281 63.9449 129.001 64.0214 128.748 64.1742C128.502 64.3212 128.305 64.5182 128.158 64.7651C128.016 65.0121 127.946 65.2884 127.946 65.5942C127.946 65.894 128.016 66.1704 128.158 66.4232C128.305 66.6701 128.502 66.87 128.748 67.0229C129.001 67.1699 129.281 67.2434 129.586 67.2434C129.939 67.2434 130.251 67.1493 130.521 66.9612C130.792 66.773 131 66.5437 131.147 66.2733L131.491 67.6579C131.238 67.8872 130.945 68.0665 130.609 68.1959C130.28 68.3194 129.93 68.3811 129.56 68.3811ZM135.95 68.24L133.701 65.3296L135.553 62.9483H136.929L135.112 65.2237L137.458 68.24H135.95ZM132.466 68.24V59.7733H133.71V68.24H132.466ZM138.196 68.24V59.7733H139.44V63.5216C139.634 63.2864 139.866 63.11 140.136 62.9924C140.407 62.8689 140.695 62.8072 141.001 62.8072C141.377 62.8072 141.727 62.8983 142.05 63.0806C142.373 63.2629 142.635 63.5275 142.835 63.8744C143.035 64.2213 143.135 64.6417 143.135 65.1355V68.24H141.891V65.3031C141.891 64.9503 141.783 64.6358 141.565 64.3594C141.353 64.0831 141.054 63.9449 140.665 63.9449C140.348 63.9449 140.063 64.0566 139.81 64.2801C139.563 64.5035 139.44 64.8357 139.44 65.2767V68.24H138.196ZM146.964 68.3811C146.447 68.3811 145.973 68.2576 145.544 68.0107C145.115 67.7579 144.774 67.4198 144.521 66.9964C144.268 66.5731 144.142 66.1057 144.142 65.5942C144.142 65.0767 144.268 64.6093 144.521 64.1919C144.774 63.7685 145.115 63.4334 145.544 63.1864C145.973 62.9336 146.447 62.8072 146.964 62.8072C147.487 62.8072 147.961 62.9336 148.384 63.1864C148.813 63.4334 149.154 63.7685 149.407 64.1919C149.66 64.6093 149.786 65.0767 149.786 65.5942C149.786 66.1057 149.66 66.5731 149.407 66.9964C149.154 67.4198 148.813 67.7579 148.384 68.0107C147.961 68.2576 147.487 68.3811 146.964 68.3811ZM146.964 67.2434C147.264 67.2434 147.537 67.1699 147.784 67.0229C148.031 66.87 148.225 66.6701 148.366 66.4232C148.513 66.1762 148.587 65.8999 148.587 65.5942C148.587 65.2884 148.513 65.0121 148.366 64.7651C148.225 64.5182 148.031 64.3212 147.784 64.1742C147.537 64.0214 147.264 63.9449 146.964 63.9449C146.664 63.9449 146.391 64.0214 146.144 64.1742C145.897 64.3212 145.7 64.5182 145.553 64.7651C145.412 65.0121 145.341 65.2884 145.341 65.5942C145.341 65.8999 145.412 66.1762 145.553 66.4232C145.7 66.6701 145.894 66.87 146.135 67.0229C146.382 67.1699 146.658 67.2434 146.964 67.2434ZM150.905 68.24V59.7733H152.148V68.24H150.905ZM153.587 68.24V62.9483H154.716V63.6186C154.91 63.3481 155.151 63.1453 155.439 63.0101C155.728 62.8748 156.03 62.8072 156.348 62.8072C156.683 62.8072 156.992 62.8807 157.274 63.0277C157.562 63.1747 157.8 63.3864 157.988 63.6627C158.194 63.3805 158.453 63.1688 158.764 63.0277C159.082 62.8807 159.423 62.8072 159.787 62.8072C160.175 62.8072 160.534 62.8983 160.863 63.0806C161.193 63.257 161.457 63.5128 161.657 63.8479C161.863 64.183 161.966 64.5858 161.966 65.0562V68.24H160.722V65.2237C160.722 64.8416 160.611 64.5358 160.387 64.3065C160.17 64.0713 159.893 63.9537 159.558 63.9537C159.364 63.9537 159.176 63.9978 158.994 64.086C158.817 64.1742 158.673 64.3124 158.561 64.5005C158.456 64.6828 158.403 64.918 158.403 65.2061V68.24H157.15V65.2237C157.15 64.965 157.097 64.7416 156.992 64.5535C156.892 64.3594 156.754 64.2095 156.577 64.1037C156.401 63.9978 156.207 63.9449 155.995 63.9449C155.807 63.9449 155.622 63.992 155.439 64.086C155.263 64.1742 155.116 64.3095 154.998 64.4917C154.887 64.674 154.831 64.9121 154.831 65.2061V68.24H153.587ZM163.824 68.3811C163.595 68.3811 163.401 68.3017 163.242 68.143C163.083 67.9842 163.004 67.7902 163.004 67.5609C163.004 67.3257 163.083 67.1317 163.242 66.9788C163.401 66.8201 163.595 66.7407 163.824 66.7407C164.065 66.7407 164.262 66.8201 164.415 66.9788C164.574 67.1376 164.653 67.3316 164.653 67.5609C164.653 67.7902 164.574 67.9842 164.415 68.143C164.262 68.3017 164.065 68.3811 163.824 68.3811ZM167.947 68.3811C167.471 68.3811 167.027 68.29 166.615 68.1077C166.209 67.9254 165.886 67.702 165.645 67.4374L166.006 65.9469C166.195 66.288 166.465 66.5849 166.818 66.8377C167.171 67.0905 167.562 67.2169 167.991 67.2169C168.355 67.2169 168.652 67.1082 168.882 66.8906C169.111 66.6672 169.226 66.3967 169.226 66.0792C169.226 65.8323 169.167 65.6294 169.049 65.4707C168.937 65.3119 168.805 65.1855 168.652 65.0914C168.499 64.9915 168.373 64.918 168.273 64.871L167.321 64.3947C167.109 64.283 166.885 64.1448 166.65 63.9802C166.415 63.8156 166.215 63.601 166.051 63.3364C165.886 63.0659 165.804 62.7249 165.804 62.3133C165.804 61.89 165.901 61.5166 166.095 61.1933C166.289 60.8699 166.562 60.6171 166.915 60.4348C167.268 60.2525 167.676 60.1614 168.141 60.1614C168.588 60.1614 168.985 60.2378 169.331 60.3907C169.678 60.5377 169.955 60.6935 170.16 60.8581L169.808 62.331C169.62 62.0546 169.37 61.8165 169.058 61.6166C168.752 61.4108 168.426 61.3079 168.079 61.3079C167.762 61.3079 167.512 61.399 167.329 61.5813C167.147 61.7577 167.056 61.9752 167.056 62.2339C167.056 62.4162 167.097 62.572 167.179 62.7014C167.268 62.8307 167.373 62.9395 167.497 63.0277C167.626 63.11 167.753 63.1835 167.876 63.2482L168.846 63.7333C168.982 63.7979 169.14 63.8891 169.323 64.0067C169.511 64.1184 169.693 64.2624 169.869 64.4388C170.046 64.6152 170.19 64.8298 170.302 65.0826C170.419 65.3355 170.478 65.6383 170.478 65.991C170.478 66.4496 170.369 66.8612 170.152 67.2258C169.94 67.5844 169.646 67.8666 169.27 68.0724C168.893 68.2782 168.452 68.3811 167.947 68.3811ZM172.238 68.24V63.9537H171.144V62.9483H172.264V61.1844H173.455V62.9483H174.637V63.9537H173.481V68.24H172.238ZM177.618 68.3811C177.247 68.3811 176.9 68.29 176.577 68.1077C176.253 67.9254 175.989 67.6608 175.783 67.3139C175.583 66.9671 175.483 66.5467 175.483 66.0528V62.9483H176.727V65.8852C176.727 66.2439 176.833 66.5614 177.044 66.8377C177.262 67.1082 177.565 67.2434 177.953 67.2434C178.27 67.2434 178.552 67.1287 178.799 66.8994C179.052 66.6701 179.179 66.3409 179.179 65.9117V62.9483H180.422V68.24H179.284V67.5344C179.09 67.8108 178.846 68.0224 178.552 68.1694C178.264 68.3105 177.953 68.3811 177.618 68.3811ZM184.181 68.3458C183.693 68.3458 183.249 68.2224 182.849 67.9754C182.449 67.7285 182.129 67.3963 181.888 66.9788C181.652 66.5614 181.535 66.0998 181.535 65.5942C181.535 65.0885 181.652 64.627 181.888 64.2095C182.129 63.7921 182.449 63.4599 182.849 63.2129C183.249 62.966 183.693 62.8425 184.181 62.8425C184.492 62.8425 184.783 62.8954 185.054 63.0012C185.33 63.1012 185.577 63.2423 185.795 63.4246V59.7733H187.038V68.24H185.936V67.6314C185.718 67.8549 185.456 68.0313 185.151 68.1606C184.851 68.2841 184.527 68.3458 184.181 68.3458ZM184.331 67.2346C184.625 67.2346 184.892 67.1611 185.133 67.0141C185.38 66.8671 185.574 66.6701 185.715 66.4232C185.862 66.1762 185.936 65.8999 185.936 65.5942C185.936 65.2943 185.862 65.0209 185.715 64.7739C185.574 64.5211 185.383 64.3212 185.142 64.1742C184.901 64.0272 184.63 63.9537 184.331 63.9537C184.037 63.9537 183.766 64.0272 183.519 64.1742C183.278 64.3212 183.084 64.5182 182.937 64.7651C182.796 65.0121 182.725 65.2884 182.725 65.5942C182.725 65.894 182.796 66.1704 182.937 66.4232C183.084 66.6701 183.278 66.8671 183.519 67.0141C183.76 67.1611 184.031 67.2346 184.331 67.2346ZM191.091 68.3811C190.521 68.3811 190.012 68.2576 189.565 68.0107C189.118 67.7637 188.768 67.4257 188.516 66.9964C188.269 66.5672 188.145 66.0822 188.145 65.5412C188.145 65.0238 188.266 64.5593 188.507 64.1478C188.754 63.7362 189.083 63.4099 189.495 63.1688C189.912 62.9277 190.371 62.8072 190.87 62.8072C191.376 62.8072 191.832 62.9248 192.237 63.16C192.649 63.3952 192.975 63.7156 193.216 64.1213C193.457 64.5211 193.578 64.9768 193.578 65.4883V65.9558H190.235C190.088 65.9558 189.941 65.9499 189.794 65.9381C189.647 65.9205 189.5 65.8999 189.353 65.8764C189.424 66.2821 189.618 66.6202 189.936 66.8906C190.259 67.1611 190.653 67.2963 191.117 67.2963C191.453 67.2963 191.758 67.2258 192.035 67.0846C192.311 66.9377 192.537 66.7495 192.714 66.5202L193.014 67.7549C192.755 67.9607 192.461 68.1165 192.132 68.2224C191.802 68.3282 191.455 68.3811 191.091 68.3811ZM189.327 65.0826C189.633 65.0238 189.936 64.9944 190.235 64.9944H191.576C191.723 64.9944 191.864 65.0003 191.999 65.0121C192.14 65.0238 192.276 65.0385 192.405 65.0562C192.317 64.6975 192.132 64.4065 191.849 64.183C191.573 63.9537 191.244 63.8391 190.862 63.8391C190.491 63.8391 190.165 63.9567 189.883 64.1919C189.6 64.4271 189.415 64.724 189.327 65.0826ZM194.639 68.24V62.9483H195.768V63.6627C195.962 63.3864 196.203 63.1747 196.491 63.0277C196.785 62.8807 197.103 62.8072 197.444 62.8072C197.82 62.8072 198.17 62.8983 198.493 63.0806C198.817 63.2629 199.078 63.5275 199.278 63.8744C199.478 64.2213 199.578 64.6417 199.578 65.1355V68.24H198.334V65.3031C198.334 64.9503 198.226 64.6358 198.008 64.3594C197.796 64.0831 197.497 63.9449 197.109 63.9449C196.791 63.9449 196.506 64.0566 196.253 64.2801C196.006 64.5035 195.883 64.8357 195.883 65.2767V68.24H194.639ZM201.346 68.24V63.9537H200.252V62.9483H201.372V61.1844H202.563V62.9483H203.745V63.9537H202.59V68.24H201.346Z"/>
<rect x="209.74" y="58.24" width="11" height="11"/>
</svg>
