<svg width="110" height="128" viewBox="0 0 110 128" fill="none" xmlns="http://www.w3.org/2000/svg">
<g clip-path="url(#clip0_26_13)">
<path d="M13.92 0H55.92V28.16H46.16V28.72C62.24 32.32 59.28 56.08 43.12 56.08H1.44V28.16H12.72V27.6C4.88 26.08 0 21.2 0 13.92C0 6.72 6.24 0 13.92 0ZM98.4563 28.08V56.08H70.4563V28.08H58.8563V0H109.336V28.08H98.4563Z" fill="black"/>
<path d="M13.92 58.08H55.92V86.24H46.16V86.8C62.24 90.4 59.28 114.16 43.12 114.16H1.44V86.24H12.72V85.68C4.88 84.16 0 79.28 0 72C0 64.8 6.24 58.08 13.92 58.08ZM98.4563 86.16V114.16H70.4563V86.16H58.8563V58.08H109.336V86.16H98.4563Z" fill="black"/>
<path d="M3.02551 126.301C2.54926 126.301 2.10535 126.21 1.69377 126.028C1.28808 125.845 0.964698 125.622 0.723633 125.357L1.08523 123.867C1.27338 124.208 1.54384 124.505 1.89662 124.758C2.2494 125.011 2.64039 125.137 3.06961 125.137C3.43414 125.137 3.73106 125.028 3.96037 124.811C4.18968 124.587 4.30433 124.317 4.30433 123.999C4.30433 123.752 4.24553 123.549 4.12794 123.391C4.01623 123.232 3.88393 123.106 3.73106 123.011C3.57819 122.912 3.45178 122.838 3.35183 122.791L2.39933 122.315C2.18766 122.203 1.96424 122.065 1.72905 121.9C1.49387 121.736 1.29396 121.521 1.12933 121.256C0.964698 120.986 0.882383 120.645 0.882383 120.233C0.882383 119.81 0.979397 119.437 1.17343 119.113C1.36745 118.79 1.64086 118.537 1.99363 118.355C2.34641 118.173 2.75505 118.081 3.21954 118.081C3.66639 118.081 4.06326 118.158 4.41016 118.311C4.75706 118.458 5.0334 118.614 5.23919 118.778L4.88641 120.251C4.69826 119.975 4.44838 119.737 4.13676 119.537C3.83102 119.331 3.5047 119.228 3.1578 119.228C2.8403 119.228 2.59042 119.319 2.40815 119.501C2.22588 119.678 2.13474 119.895 2.13474 120.154C2.13474 120.336 2.1759 120.492 2.25822 120.621C2.34641 120.751 2.45224 120.86 2.57572 120.948C2.70507 121.03 2.83148 121.104 2.95495 121.168L3.92509 121.653C4.06032 121.718 4.21907 121.809 4.40134 121.927C4.58949 122.038 4.77176 122.182 4.94815 122.359C5.12454 122.535 5.26859 122.75 5.3803 123.003C5.49789 123.255 5.55669 123.558 5.55669 123.911C5.55669 124.37 5.44792 124.781 5.23037 125.146C5.0187 125.504 4.72472 125.787 4.34843 125.992C3.97213 126.198 3.53116 126.301 3.02551 126.301ZM7.31644 126.16V121.874H6.22283V120.868H7.3429V119.104H8.53353V120.868H9.71533V121.874H8.55999V126.16H7.31644ZM12.9121 126.301C12.3947 126.301 11.9213 126.178 11.4921 125.931C11.0629 125.678 10.7219 125.34 10.4691 124.916C10.2163 124.493 10.0898 124.026 10.0898 123.514C10.0898 122.997 10.2163 122.529 10.4691 122.112C10.7219 121.689 11.0629 121.353 11.4921 121.106C11.9213 120.854 12.3947 120.727 12.9121 120.727C13.4354 120.727 13.9087 120.854 14.332 121.106C14.7612 121.353 15.1022 121.689 15.3551 122.112C15.6079 122.529 15.7343 122.997 15.7343 123.514C15.7343 124.026 15.6079 124.493 15.3551 124.916C15.1022 125.34 14.7612 125.678 14.332 125.931C13.9087 126.178 13.4354 126.301 12.9121 126.301ZM12.9121 125.163C13.2119 125.163 13.4853 125.09 13.7323 124.943C13.9792 124.79 14.1732 124.59 14.3144 124.343C14.4613 124.096 14.5348 123.82 14.5348 123.514C14.5348 123.208 14.4613 122.932 14.3144 122.685C14.1732 122.438 13.9792 122.241 13.7323 122.094C13.4853 121.941 13.2119 121.865 12.9121 121.865C12.6122 121.865 12.3388 121.941 12.0919 122.094C11.8449 122.241 11.6479 122.438 11.501 122.685C11.3598 122.932 11.2893 123.208 11.2893 123.514C11.2893 123.82 11.3598 124.096 11.501 124.343C11.6479 124.59 11.842 124.79 12.083 124.943C12.33 125.09 12.6063 125.163 12.9121 125.163ZM19.3577 126.301C18.8344 126.301 18.3582 126.178 17.929 125.931C17.4997 125.678 17.1587 125.34 16.9059 124.916C16.6531 124.493 16.5267 124.026 16.5267 123.514C16.5267 122.997 16.6531 122.529 16.9059 122.112C17.1587 121.689 17.4997 121.353 17.929 121.106C18.3582 120.854 18.8344 120.727 19.3577 120.727C19.7281 120.727 20.078 120.792 20.4072 120.921C20.7424 121.045 21.0363 121.221 21.2892 121.45L20.9452 122.835C20.7982 122.571 20.5895 122.344 20.319 122.156C20.0486 121.962 19.7369 121.865 19.3842 121.865C19.0784 121.865 18.7991 121.941 18.5463 122.094C18.2994 122.241 18.1024 122.438 17.9554 122.685C17.8143 122.932 17.7437 123.208 17.7437 123.514C17.7437 123.814 17.8143 124.09 17.9554 124.343C18.1024 124.59 18.2994 124.79 18.5463 124.943C18.7991 125.09 19.0784 125.163 19.3842 125.163C19.7369 125.163 20.0486 125.069 20.319 124.881C20.5895 124.693 20.7982 124.464 20.9452 124.193L21.2892 125.578C21.0363 125.807 20.7424 125.987 20.4072 126.116C20.078 126.239 19.7281 126.301 19.3577 126.301ZM25.7477 126.16L23.4987 123.25L25.3508 120.868H26.7266L24.9098 123.144L27.2558 126.16H25.7477ZM22.264 126.16V117.693H23.5075V126.16H22.264ZM27.9939 126.16V117.693H29.2374V121.442C29.4314 121.206 29.6637 121.03 29.9341 120.912C30.2046 120.789 30.4927 120.727 30.7984 120.727C31.1747 120.727 31.5246 120.818 31.848 121.001C32.1713 121.183 32.433 121.448 32.6329 121.794C32.8328 122.141 32.9328 122.562 32.9328 123.056V126.16H31.6892V123.223C31.6892 122.87 31.5804 122.556 31.3629 122.279C31.1512 122.003 30.8514 121.865 30.4633 121.865C30.1458 121.865 29.8606 121.977 29.6078 122.2C29.3609 122.424 29.2374 122.756 29.2374 123.197V126.16H27.9939ZM36.7618 126.301C36.2444 126.301 35.7711 126.178 35.3418 125.931C34.9126 125.678 34.5716 125.34 34.3188 124.916C34.066 124.493 33.9396 124.026 33.9396 123.514C33.9396 122.997 34.066 122.529 34.3188 122.112C34.5716 121.689 34.9126 121.353 35.3418 121.106C35.7711 120.854 36.2444 120.727 36.7618 120.727C37.2851 120.727 37.7584 120.854 38.1817 121.106C38.6109 121.353 38.9519 121.689 39.2048 122.112C39.4576 122.529 39.584 122.997 39.584 123.514C39.584 124.026 39.4576 124.493 39.2048 124.916C38.9519 125.34 38.6109 125.678 38.1817 125.931C37.7584 126.178 37.2851 126.301 36.7618 126.301ZM36.7618 125.163C37.0616 125.163 37.335 125.09 37.582 124.943C37.8289 124.79 38.023 124.59 38.1641 124.343C38.3111 124.096 38.3846 123.82 38.3846 123.514C38.3846 123.208 38.3111 122.932 38.1641 122.685C38.023 122.438 37.8289 122.241 37.582 122.094C37.335 121.941 37.0616 121.865 36.7618 121.865C36.4619 121.865 36.1885 121.941 35.9416 122.094C35.6946 122.241 35.4977 122.438 35.3507 122.685C35.2096 122.932 35.139 123.208 35.139 123.514C35.139 123.82 35.2096 124.096 35.3507 124.343C35.4977 124.59 35.6917 124.79 35.9327 124.943C36.1797 125.09 36.456 125.163 36.7618 125.163ZM40.7027 126.16V117.693H41.9462V126.16H40.7027ZM43.3852 126.16V120.868H44.5141V121.539C44.7081 121.268 44.9492 121.065 45.2373 120.93C45.5254 120.795 45.8282 120.727 46.1457 120.727C46.4808 120.727 46.7895 120.801 47.0717 120.948C47.3598 121.095 47.5979 121.306 47.7861 121.583C47.9919 121.301 48.2506 121.089 48.5622 120.948C48.8797 120.801 49.2207 120.727 49.5852 120.727C49.9733 120.727 50.332 120.818 50.6612 121.001C50.9905 121.177 51.2551 121.433 51.455 121.768C51.6608 122.103 51.7636 122.506 51.7636 122.976V126.16H50.5201V123.144C50.5201 122.762 50.4084 122.456 50.185 122.227C49.9674 121.991 49.6911 121.874 49.3559 121.874C49.1619 121.874 48.9738 121.918 48.7915 122.006C48.6151 122.094 48.4711 122.232 48.3593 122.421C48.2535 122.603 48.2006 122.838 48.2006 123.126V126.16H46.9482V123.144C46.9482 122.885 46.8953 122.662 46.7895 122.474C46.6895 122.279 46.5514 122.13 46.375 122.024C46.1986 121.918 46.0045 121.865 45.7929 121.865C45.6047 121.865 45.4195 121.912 45.2373 122.006C45.0609 122.094 44.9139 122.23 44.7963 122.412C44.6846 122.594 44.6287 122.832 44.6287 123.126V126.16H43.3852ZM53.6218 126.301C53.3925 126.301 53.1985 126.222 53.0397 126.063C52.881 125.904 52.8016 125.71 52.8016 125.481C52.8016 125.246 52.881 125.052 53.0397 124.899C53.1985 124.74 53.3925 124.661 53.6218 124.661C53.8629 124.661 54.0598 124.74 54.2127 124.899C54.3714 125.058 54.4508 125.252 54.4508 125.481C54.4508 125.71 54.3714 125.904 54.2127 126.063C54.0598 126.222 53.8629 126.301 53.6218 126.301ZM57.7446 126.301C57.2684 126.301 56.8244 126.21 56.4129 126.028C56.0072 125.845 55.6838 125.622 55.4427 125.357L55.8043 123.867C55.9925 124.208 56.2629 124.505 56.6157 124.758C56.9685 125.011 57.3595 125.137 57.7887 125.137C58.1532 125.137 58.4502 125.028 58.6795 124.811C58.9088 124.587 59.0234 124.317 59.0234 123.999C59.0234 123.752 58.9646 123.549 58.847 123.391C58.7353 123.232 58.603 123.106 58.4502 123.011C58.2973 122.912 58.1709 122.838 58.0709 122.791L57.1184 122.315C56.9068 122.203 56.6833 122.065 56.4481 121.9C56.213 121.736 56.0131 121.521 55.8484 121.256C55.6838 120.986 55.6015 120.645 55.6015 120.233C55.6015 119.81 55.6985 119.437 55.8925 119.113C56.0866 118.79 56.36 118.537 56.7127 118.355C57.0655 118.173 57.4741 118.081 57.9386 118.081C58.3855 118.081 58.7824 118.158 59.1293 118.311C59.4762 118.458 59.7525 118.614 59.9583 118.778L59.6055 120.251C59.4174 119.975 59.1675 119.737 58.8559 119.537C58.5501 119.331 58.2238 119.228 57.8769 119.228C57.5594 119.228 57.3095 119.319 57.1272 119.501C56.945 119.678 56.8538 119.895 56.8538 120.154C56.8538 120.336 56.895 120.492 56.9773 120.621C57.0655 120.751 57.1713 120.86 57.2948 120.948C57.4242 121.03 57.5506 121.104 57.6741 121.168L58.6442 121.653C58.7794 121.718 58.9382 121.809 59.1204 121.927C59.3086 122.038 59.4909 122.182 59.6672 122.359C59.8436 122.535 59.9877 122.75 60.0994 123.003C60.217 123.255 60.2758 123.558 60.2758 123.911C60.2758 124.37 60.167 124.781 59.9495 125.146C59.7378 125.504 59.4438 125.787 59.0675 125.992C58.6912 126.198 58.2503 126.301 57.7446 126.301ZM62.0355 126.16V121.874H60.9419V120.868H62.062V119.104H63.2526V120.868H64.4344V121.874H63.2791V126.16H62.0355ZM67.4154 126.301C67.045 126.301 66.6981 126.21 66.3747 126.028C66.0513 125.845 65.7867 125.581 65.581 125.234C65.381 124.887 65.2811 124.467 65.2811 123.973V120.868H66.5246V123.805C66.5246 124.164 66.6305 124.481 66.8421 124.758C67.0597 125.028 67.3625 125.163 67.7505 125.163C68.068 125.163 68.3503 125.049 68.5972 124.819C68.85 124.59 68.9764 124.261 68.9764 123.832V120.868H70.22V126.16H69.0823V125.454C68.8882 125.731 68.6442 125.942 68.3503 126.089C68.0622 126.231 67.7505 126.301 67.4154 126.301ZM73.9784 126.266C73.4904 126.266 73.0465 126.142 72.6467 125.895C72.2469 125.649 71.9265 125.316 71.6854 124.899C71.4502 124.481 71.3326 124.02 71.3326 123.514C71.3326 123.009 71.4502 122.547 71.6854 122.13C71.9265 121.712 72.2469 121.38 72.6467 121.133C73.0465 120.886 73.4904 120.763 73.9784 120.763C74.2901 120.763 74.5811 120.815 74.8516 120.921C75.1279 121.021 75.3749 121.162 75.5924 121.345V117.693H76.8359V126.16H75.7335V125.551C75.516 125.775 75.2543 125.951 74.9486 126.081C74.6487 126.204 74.3253 126.266 73.9784 126.266ZM74.1284 125.155C74.4224 125.155 74.6899 125.081 74.9309 124.934C75.1779 124.787 75.3719 124.59 75.513 124.343C75.66 124.096 75.7335 123.82 75.7335 123.514C75.7335 123.214 75.66 122.941 75.513 122.694C75.3719 122.441 75.1808 122.241 74.9398 122.094C74.6987 121.947 74.4282 121.874 74.1284 121.874C73.8344 121.874 73.5639 121.947 73.317 122.094C73.0759 122.241 72.8819 122.438 72.7349 122.685C72.5938 122.932 72.5232 123.208 72.5232 123.514C72.5232 123.814 72.5938 124.09 72.7349 124.343C72.8819 124.59 73.0759 124.787 73.317 124.934C73.5581 125.081 73.8285 125.155 74.1284 125.155ZM80.8888 126.301C80.3184 126.301 79.8098 126.178 79.363 125.931C78.9161 125.684 78.5663 125.346 78.3135 124.916C78.0665 124.487 77.9431 124.002 77.9431 123.461C77.9431 122.944 78.0636 122.479 78.3047 122.068C78.5516 121.656 78.8809 121.33 79.2924 121.089C79.7099 120.848 80.1685 120.727 80.6683 120.727C81.1739 120.727 81.6296 120.845 82.0353 121.08C82.4469 121.315 82.7732 121.636 83.0142 122.041C83.2553 122.441 83.3758 122.897 83.3758 123.408V123.876H80.0333C79.8863 123.876 79.7393 123.87 79.5923 123.858C79.4453 123.841 79.2983 123.82 79.1513 123.796C79.2219 124.202 79.4159 124.54 79.7334 124.811C80.0568 125.081 80.4507 125.216 80.9152 125.216C81.2504 125.216 81.5561 125.146 81.8324 125.005C82.1088 124.858 82.3351 124.67 82.5115 124.44L82.8114 125.675C82.5527 125.881 82.2587 126.037 81.9295 126.142C81.6002 126.248 81.2533 126.301 80.8888 126.301ZM79.1249 123.003C79.4306 122.944 79.7334 122.914 80.0333 122.914H81.3738C81.5208 122.914 81.6619 122.92 81.7972 122.932C81.9383 122.944 82.0735 122.959 82.2029 122.976C82.1147 122.618 81.9295 122.327 81.6472 122.103C81.3709 121.874 81.0416 121.759 80.6595 121.759C80.289 121.759 79.9627 121.877 79.6805 122.112C79.3983 122.347 79.2131 122.644 79.1249 123.003ZM84.4369 126.16V120.868H85.5658V121.583C85.7598 121.306 86.0009 121.095 86.289 120.948C86.583 120.801 86.9005 120.727 87.2415 120.727C87.6178 120.727 87.9676 120.818 88.291 121.001C88.6144 121.183 88.8761 121.448 89.076 121.794C89.2759 122.141 89.3758 122.562 89.3758 123.056V126.16H88.1323V123.223C88.1323 122.87 88.0235 122.556 87.806 122.279C87.5943 122.003 87.2944 121.865 86.9064 121.865C86.5889 121.865 86.3037 121.977 86.0509 122.2C85.8039 122.424 85.6805 122.756 85.6805 123.197V126.16H84.4369ZM91.1438 126.16V121.874H90.0502V120.868H91.1703V119.104H92.3609V120.868H93.5427V121.874H92.3874V126.16H91.1438Z" fill="black"/>
<path d="M109.168 116.31H98.468V127.01H109.168V116.31Z" fill="black"/>
</g>
<defs>
<clipPath id="clip0_26_13">
<rect width="110" height="128" fill="white"/>
</clipPath>
</defs>
</svg>
